<?xml version="1.0" encoding="UTF-8"?>
<svg
width="516.48mm"
height="64.557mm"
version="1.1"
viewBox="0 0 516.48 64.557"
xml:space="preserve"
xmlns="http://www.w3.org/2000/svg"><g
transform="translate(-460.19 255.63)">
<path d="m470.17-194.72q-0.71235 1.6028-1.4247 2.137-0.71235 0.5343-2.137 0.5343h-4.6303q-1.7809 0-1.7809-1.1576 0-0.4452 0.44522-1.5137l26.802-56.454q1.3357-2.7603 1.959-3.5617 0.62331-0.8905 1.5137-0.8905 0.8014 0 1.3357 0.8905 0.6233 0.8014 1.959 3.5617l27.069 56.454q0.44522 1.0685 0.44522 1.5137 0 1.1576-1.8699 1.1576h-4.9864q-1.4247 0-2.137-0.5343-0.62331-0.5342-1.4247-2.137l-20.569-44.344zm65.232 0.7123q0 1.1576-0.44522 1.6028-0.44522 0.3562-1.5137 0.3562h-4.9864q-1.0685 0-1.5137-0.3562-0.44522-0.4452-0.44522-1.6028v-58.413q0-1.1576 0.44522-1.5137 0.44521-0.4452 1.5137-0.4452h17.007q25.377 0 25.377 19.322 0 6.4112-3.2056 10.596-3.2056 4.096-8.9044 6.055l15.316 23.686q0.71235 0.9794 0.71235 1.6918 0 0.5342-0.53426 0.8014-0.44522 0.1781-1.4247 0.1781h-5.2536q-1.5137 0-2.2261-0.4453-0.71235-0.4452-1.6918-1.9589l-16.384-26.001q-0.53426-0.7124-0.53426-1.2466 0-0.7124 1.3356-0.8014 13.446-1.4247 13.446-12.021 0-6.055-4.2741-8.8153-4.185-2.8494-12.199-2.8494h-8.5482q-0.6233 0-0.89043 0.2671-0.17809 0.1781-0.17809 0.8014zm72.979-5.5207q10.062 0 17.898-6.4111 0.97948-0.8014 1.5137-0.8014 0.35617 0 0.71235 0.2671 0.35617 0.2671 0.6233 0.6233l2.5823 3.5618q0.44522 0.5342 0.44522 1.2466 0 0.3561-0.26714 0.8014-0.26713 0.3561-0.80139 0.8013-4.7193 4.007-10.685 6.2331-5.8769 2.137-12.377 2.137-8.7263 0-16.028-4.096-7.2125-4.096-11.487-11.398-4.185-7.3016-4.185-16.384 0-9.1715 4.185-16.562 4.2741-7.3906 11.576-11.576 7.3906-4.2741 16.473-4.2741 6.4111 0 12.199 2.2261 5.8769 2.226 10.418 6.0549 0.89043 0.6233 0.89043 1.3357 0 0.6233-0.53426 1.4247l-2.5823 3.4727q-0.71235 0.9795-1.4247 0.9795-0.53426 0-1.5137-0.7124-3.8289-2.9384-8.2811-4.6303-4.4522-1.6918-9.3496-1.6918-6.3221 0-11.576 3.0275-5.1645 3.0275-8.192 8.4591-3.0275 5.4317-3.0275 12.288 0 6.5893 2.9384 12.021 3.0275 5.4317 8.192 8.5482 5.2536 3.0275 11.665 3.0275zm80.547 5.5207q0 1.1576-0.44521 1.6028-0.44522 0.3562-1.5137 0.3562h-4.9864q-1.0685 0-1.5137-0.3562-0.44522-0.4452-0.44522-1.6028v-24.843q0-0.5343-0.26713-0.7124-0.17808-0.2671-0.80139-0.2671h-29.473q-0.62331 0-0.89044 0.2671-0.17808 0.1781-0.17808 0.7124v24.843q0 1.1576-0.44522 1.6028-0.44522 0.3562-1.5137 0.3562h-4.9864q-1.0685 0-1.5137-0.3562-0.44521-0.4452-0.44521-1.6028v-58.413q0-1.1576 0.44521-1.5137 0.44522-0.4452 1.5137-0.4452h4.9864q1.0685 0 1.5137 0.4452 0.44522 0.3561 0.44522 1.5137v23.151q0 0.5342 0.17808 0.8013 0.26713 0.2672 0.89044 0.2672h29.473q0.62331 0 0.80139-0.2672 0.26713-0.2671 0.26713-0.8013v-23.151q0-1.1576 0.44522-1.5137 0.44522-0.4452 1.5137-0.4452h4.9864q1.0685 0 1.5137 0.4452 0.44521 0.3561 0.44521 1.5137zm21.601 0q0 1.1576-0.44522 1.6028-0.44522 0.3562-1.5137 0.3562h-4.9864q-1.0685 0-1.5137-0.3562-0.44522-0.4452-0.44522-1.6028v-58.413q0-1.1576 0.44522-1.5137 0.44521-0.4452 1.5137-0.4452h4.9864q1.0685 0 1.5137 0.4452 0.44522 0.3561 0.44522 1.5137zm26.943-0.4452q-0.71235 1.5137-1.3357 1.959-0.53426 0.4452-1.8699 0.4452h-5.0755q-0.97948 0-1.4247-0.1781-0.44522-0.2671-0.44522-0.8904 0-0.4453 0.44522-1.6028l22.706-51.2h-30.809q-1.1576 0-1.6028-0.4452-0.44521-0.4452-0.44521-1.6028v-4.3631q0-1.1576 0.44521-1.6028 0.44522-0.4452 1.6028-0.4452h40.604q2.3151 0 2.3151 1.3356 0 0.7124-0.53426 1.959zm67.191-6.055q1.0685 0 1.5137 0.4453 0.44522 0.3561 0.44522 1.5137v4.5412q0 1.1576-0.44522 1.6028-0.44521 0.3562-1.5137 0.3562h-33.748q-1.0685 0-1.5137-0.3562-0.44522-0.4452-0.44522-1.6028v-58.413q0-1.1576 0.44522-1.5137 0.44521-0.4452 1.5137-0.4452h33.658q1.0685 0 1.5137 0.4452 0.44522 0.3561 0.44522 1.5137v4.5412q0 1.1576-0.44522 1.6028-0.44522 0.3562-1.5137 0.3562h-25.645q-0.6233 0-0.89043 0.2671-0.17809 0.1781-0.17809 0.7124v16.295q0 0.6233 0.17809 0.8904 0.26713 0.1781 0.89043 0.1781h22.617q1.0685 0 1.5137 0.4452 0.44522 0.3562 0.44522 1.5137v4.4522q0 1.0685-0.44522 1.5138-0.44522 0.4452-1.5137 0.4452h-22.617q-0.6233 0-0.89043 0.2671-0.17809 0.1781-0.17809 0.7124v16.74q0 0.5342 0.17809 0.8013 0.26713 0.1781 0.89043 0.1781zm39.944 0.9795q10.062 0 17.898-6.4111 0.97948-0.8014 1.5137-0.8014 0.35617 0 0.71235 0.2671 0.35617 0.2671 0.6233 0.6233l2.5823 3.5618q0.44521 0.5342 0.44521 1.2466 0 0.3561-0.26713 0.8014-0.26713 0.3561-0.80139 0.8013-4.7193 4.007-10.685 6.2331-5.8769 2.137-12.377 2.137-8.7263 0-16.028-4.096-7.2125-4.096-11.487-11.398-4.185-7.3016-4.185-16.384 0-9.1715 4.185-16.562 4.2741-7.3906 11.576-11.576 7.3906-4.2741 16.473-4.2741 6.4111 0 12.199 2.2261 5.8769 2.226 10.418 6.0549 0.89044 0.6233 0.89044 1.3357 0 0.6233-0.53426 1.4247l-2.5823 3.4727q-0.71235 0.9795-1.4247 0.9795-0.53427 0-1.5138-0.7124-3.8289-2.9384-8.281-4.6303-4.4522-1.6918-9.3496-1.6918-6.3221 0-11.576 3.0275-5.1645 3.0275-8.192 8.4591-3.0275 5.4317-3.0275 12.288 0 6.5893 2.9384 12.021 3.0275 5.4317 8.192 8.5482 5.2536 3.0275 11.665 3.0275zm80.547 5.5207q0 1.1576-0.44522 1.6028-0.44522 0.3562-1.5137 0.3562h-4.9864q-1.0685 0-1.5137-0.3562-0.44522-0.4452-0.44522-1.6028v-24.843q0-0.5343-0.26713-0.7124-0.17809-0.2671-0.8014-0.2671h-29.473q-0.6233 0-0.89043 0.2671-0.17809 0.1781-0.17809 0.7124v24.843q0 1.1576-0.44522 1.6028-0.44522 0.3562-1.5137 0.3562h-4.9864q-1.0685 0-1.5137-0.3562-0.44522-0.4452-0.44522-1.6028v-58.413q0-1.1576 0.44522-1.5137 0.44521-0.4452 1.5137-0.4452h4.9864q1.0685 0 1.5137 0.4452 0.44522 0.3561 0.44522 1.5137v23.151q0 0.5342 0.17809 0.8013 0.26713 0.2672 0.89043 0.2672h29.473q0.62331 0 0.8014-0.2672 0.26713-0.2671 0.26713-0.8013v-23.151q0-1.1576 0.44522-1.5137 0.44521-0.4452 1.5137-0.4452h4.9864q1.0685 0 1.5137 0.4452 0.44522 0.3561 0.44522 1.5137zm9.8468-11.487q0.71235-0.9795 1.3357-0.9795 0.44521 0 1.3356 0.7124 8.103 6.3221 16.295 6.3221 4.096 0 7.1235-1.1576 3.0275-1.1576 4.6303-3.2946 1.6918-2.2261 1.6918-5.0755 0-2.7604-1.3356-4.5412-1.3357-1.7809-4.3631-3.0275-2.9384-1.3357-8.3701-2.7604-6.4111-1.6028-10.596-3.7398-4.096-2.137-6.4111-5.5207-2.2261-3.4727-2.2261-8.6372 0-5.6098 2.7604-9.7058t7.4797-6.233q4.8084-2.2261 10.774-2.2261 11.219 0 20.302 7.0344 0.44521 0.3562 0.6233 0.7124 0.26713 0.2671 0.26713 0.6233 0 0.2671-0.17808 0.6233-0.17809 0.3562-0.44522 0.8014l-2.5823 3.8288q-0.35617 0.5343-0.71235 0.8014-0.26713 0.1781-0.6233 0.1781-0.62331 0-1.5137-0.6233-3.5618-2.5822-7.3016-4.096-3.7398-1.5137-7.9249-1.5137-3.3837 0-6.055 1.1575-2.5823 1.0686-4.096 3.2056-1.4247 2.048-1.4247 4.8974t1.4247 4.7193q1.5137 1.8699 4.3631 3.1165 2.9384 1.2467 7.9249 2.4933 6.8564 1.7808 11.041 4.0069 4.2741 2.2261 6.3221 5.6098 2.137 3.2946 2.137 8.192 0 5.5207-2.9384 9.7948-2.9384 4.185-8.103 6.5002-5.1645 2.2261-11.843 2.2261-6.055 0-11.398-2.048-5.2536-2.048-9.7058-5.6098-0.97948-0.8904-0.97948-1.5137t0.6233-1.5138z"
fill="#f0f0f0"
stroke-width="7.4223"
aria-label="ARCHI7ECHS"/></g></svg>
